<mxfile host="app.diagrams.net" agent="Mozilla/5.0 (Windows NT 10.0; Win64; x64) AppleWebKit/537.36 (KHTML, like Gecko) Chrome/132.0.0.0 Safari/537.36" version="26.0.14">
  <diagram name="PÃ¡gina-1" id="Db4Dm08B_xMIqllQ9Hdu">
    <mxGraphModel dx="637" dy="319" grid="1" gridSize="10" guides="1" tooltips="1" connect="1" arrows="1" fold="1" page="1" pageScale="1" pageWidth="850" pageHeight="1100" math="0" shadow="0">
      <root>
        <mxCell id="0" />
        <mxCell id="1" parent="0" />
        <mxCell id="d5-xi4A_o2c0xqLMsdiI-3" value="" style="edgeStyle=orthogonalEdgeStyle;rounded=0;orthogonalLoop=1;jettySize=auto;html=1;" edge="1" parent="1" source="d5-xi4A_o2c0xqLMsdiI-1" target="d5-xi4A_o2c0xqLMsdiI-2">
          <mxGeometry relative="1" as="geometry" />
        </mxCell>
        <mxCell id="d5-xi4A_o2c0xqLMsdiI-1" value="Inicio" style="ellipse;whiteSpace=wrap;html=1;" vertex="1" parent="1">
          <mxGeometry x="365" y="10" width="120" height="80" as="geometry" />
        </mxCell>
        <mxCell id="d5-xi4A_o2c0xqLMsdiI-5" value="" style="edgeStyle=orthogonalEdgeStyle;rounded=0;orthogonalLoop=1;jettySize=auto;html=1;" edge="1" parent="1" source="d5-xi4A_o2c0xqLMsdiI-2" target="d5-xi4A_o2c0xqLMsdiI-4">
          <mxGeometry relative="1" as="geometry" />
        </mxCell>
        <mxCell id="d5-xi4A_o2c0xqLMsdiI-2" value="Ingresa precio base" style="whiteSpace=wrap;html=1;" vertex="1" parent="1">
          <mxGeometry x="365" y="120" width="120" height="60" as="geometry" />
        </mxCell>
        <mxCell id="d5-xi4A_o2c0xqLMsdiI-7" value="" style="edgeStyle=orthogonalEdgeStyle;rounded=0;orthogonalLoop=1;jettySize=auto;html=1;" edge="1" parent="1" source="d5-xi4A_o2c0xqLMsdiI-4" target="d5-xi4A_o2c0xqLMsdiI-6">
          <mxGeometry relative="1" as="geometry" />
        </mxCell>
        <mxCell id="d5-xi4A_o2c0xqLMsdiI-9" value="" style="edgeStyle=orthogonalEdgeStyle;rounded=0;orthogonalLoop=1;jettySize=auto;html=1;" edge="1" parent="1" source="d5-xi4A_o2c0xqLMsdiI-4" target="d5-xi4A_o2c0xqLMsdiI-8">
          <mxGeometry relative="1" as="geometry" />
        </mxCell>
        <mxCell id="d5-xi4A_o2c0xqLMsdiI-4" value="precio base &amp;gt; $300?" style="rhombus;whiteSpace=wrap;html=1;" vertex="1" parent="1">
          <mxGeometry x="358" y="230" width="135" height="130" as="geometry" />
        </mxCell>
        <mxCell id="d5-xi4A_o2c0xqLMsdiI-6" value="Calcular descuento = precio * 0.10" style="whiteSpace=wrap;html=1;" vertex="1" parent="1">
          <mxGeometry x="130" y="390" width="120" height="60" as="geometry" />
        </mxCell>
        <mxCell id="d5-xi4A_o2c0xqLMsdiI-8" value="Calcular descuento = precio * 0.05" style="whiteSpace=wrap;html=1;" vertex="1" parent="1">
          <mxGeometry x="630" y="390" width="120" height="60" as="geometry" />
        </mxCell>
        <mxCell id="d5-xi4A_o2c0xqLMsdiI-16" value="" style="edgeStyle=orthogonalEdgeStyle;rounded=0;orthogonalLoop=1;jettySize=auto;html=1;" edge="1" parent="1" source="d5-xi4A_o2c0xqLMsdiI-10" target="d5-xi4A_o2c0xqLMsdiI-15">
          <mxGeometry relative="1" as="geometry" />
        </mxCell>
        <mxCell id="d5-xi4A_o2c0xqLMsdiI-10" value="Calcular pecio con descuento=precio base-descuento" style="rounded=0;whiteSpace=wrap;html=1;" vertex="1" parent="1">
          <mxGeometry x="365" y="480" width="120" height="60" as="geometry" />
        </mxCell>
        <mxCell id="d5-xi4A_o2c0xqLMsdiI-11" value="Si" style="text;html=1;align=center;verticalAlign=middle;whiteSpace=wrap;rounded=0;" vertex="1" parent="1">
          <mxGeometry x="270" y="270" width="60" height="30" as="geometry" />
        </mxCell>
        <mxCell id="d5-xi4A_o2c0xqLMsdiI-12" value="No" style="text;html=1;align=center;verticalAlign=middle;whiteSpace=wrap;rounded=0;" vertex="1" parent="1">
          <mxGeometry x="550" y="270" width="60" height="30" as="geometry" />
        </mxCell>
        <mxCell id="d5-xi4A_o2c0xqLMsdiI-13" value="" style="endArrow=classic;html=1;rounded=0;exitX=0.5;exitY=1;exitDx=0;exitDy=0;" edge="1" parent="1" source="d5-xi4A_o2c0xqLMsdiI-6">
          <mxGeometry width="50" height="50" relative="1" as="geometry">
            <mxPoint x="315" y="570" as="sourcePoint" />
            <mxPoint x="365" y="520" as="targetPoint" />
            <Array as="points">
              <mxPoint x="190" y="520" />
            </Array>
          </mxGeometry>
        </mxCell>
        <mxCell id="d5-xi4A_o2c0xqLMsdiI-14" value="" style="endArrow=classic;html=1;rounded=0;entryX=1.021;entryY=0.626;entryDx=0;entryDy=0;entryPerimeter=0;exitX=0.608;exitY=1.04;exitDx=0;exitDy=0;exitPerimeter=0;" edge="1" parent="1" source="d5-xi4A_o2c0xqLMsdiI-8" target="d5-xi4A_o2c0xqLMsdiI-10">
          <mxGeometry width="50" height="50" relative="1" as="geometry">
            <mxPoint x="610" y="550" as="sourcePoint" />
            <mxPoint x="660" y="500" as="targetPoint" />
            <Array as="points">
              <mxPoint x="703" y="518" />
            </Array>
          </mxGeometry>
        </mxCell>
        <mxCell id="d5-xi4A_o2c0xqLMsdiI-18" value="" style="edgeStyle=orthogonalEdgeStyle;rounded=0;orthogonalLoop=1;jettySize=auto;html=1;" edge="1" parent="1" source="d5-xi4A_o2c0xqLMsdiI-15" target="d5-xi4A_o2c0xqLMsdiI-17">
          <mxGeometry relative="1" as="geometry" />
        </mxCell>
        <mxCell id="d5-xi4A_o2c0xqLMsdiI-15" value="Calcular IVA = precio con descuento * 0.16" style="whiteSpace=wrap;html=1;rounded=0;" vertex="1" parent="1">
          <mxGeometry x="365" y="590" width="120" height="60" as="geometry" />
        </mxCell>
        <mxCell id="d5-xi4A_o2c0xqLMsdiI-20" value="" style="edgeStyle=orthogonalEdgeStyle;rounded=0;orthogonalLoop=1;jettySize=auto;html=1;" edge="1" parent="1" source="d5-xi4A_o2c0xqLMsdiI-17" target="d5-xi4A_o2c0xqLMsdiI-19">
          <mxGeometry relative="1" as="geometry" />
        </mxCell>
        <mxCell id="d5-xi4A_o2c0xqLMsdiI-17" value="Calcular precio final = precio con descuento + IVA" style="whiteSpace=wrap;html=1;rounded=0;" vertex="1" parent="1">
          <mxGeometry x="365.5" y="710" width="120" height="60" as="geometry" />
        </mxCell>
        <mxCell id="d5-xi4A_o2c0xqLMsdiI-22" value="" style="edgeStyle=orthogonalEdgeStyle;rounded=0;orthogonalLoop=1;jettySize=auto;html=1;" edge="1" parent="1" source="d5-xi4A_o2c0xqLMsdiI-19" target="d5-xi4A_o2c0xqLMsdiI-21">
          <mxGeometry relative="1" as="geometry" />
        </mxCell>
        <mxCell id="d5-xi4A_o2c0xqLMsdiI-19" value="Mostrar precio base, descuento, IVA y precio final" style="whiteSpace=wrap;html=1;rounded=0;" vertex="1" parent="1">
          <mxGeometry x="365" y="830" width="120" height="60" as="geometry" />
        </mxCell>
        <mxCell id="d5-xi4A_o2c0xqLMsdiI-21" value="Fin" style="ellipse;whiteSpace=wrap;html=1;rounded=0;" vertex="1" parent="1">
          <mxGeometry x="368" y="920" width="115" height="80" as="geometry" />
        </mxCell>
      </root>
    </mxGraphModel>
  </diagram>
</mxfile>
